<?xml version="1.0" encoding="UTF-8"?><svg id="Layer_2" xmlns="http://www.w3.org/2000/svg" viewBox="0 0 166.09 132.7"><defs><style>.cls-1{fill:#fff;}</style></defs><g id="Layer_1-2"><path class="cls-1" d="M81.69,30.24v67.38c0,10.16-2.88,18.54-8.64,25.16-5.76,6.62-13.06,9.92-21.9,9.92-2.59,0-5.62-.56-9.08-1.68v-28.78c1.46.64,2.81.95,4.03.95,3.91,0,5.86-3.15,5.86-9.45V30.24h29.74Z"/><rect class="cls-1" x="51.84" width="29.84" height="27.04"/><path d="M0,59.48v-22.96S48.59,0,48.59,0v27.18s-27.42,20.7-27.42,20.7l27.48,20.7v27.33S0,59.48,0,59.48Z"/><path class="cls-1" d="M134.61,99.98h-31.2l-14.43-32.23v-25.71h2.34c6.25,0,9.38-2.68,9.38-8.06,0-4.73-3.62-7.1-10.84-7.1h-4.98V0h8.13c11.62,0,20.63,2.88,27.02,8.64,7.13,6.45,10.7,14.63,10.7,24.54,0,2.24-.22,4.41-.65,6.49-.02.07-.03.14-.05.21-1.49,6.92-5.39,12.97-11.69,18.15-.05.05-.1.09-.15.13-.24.2-.48.39-.72.58l11.92,28.67.55,1.34,4.67,11.23Z"/><path d="M166.09,68.18v22.96l-48.65,36.44v-24.6h21.67l-1.73-4.15-4.31-10.36,11.85-8.93-22.67-17.12-1.16-2.78c5.63-4.86,9.42-10.51,11.28-16.81l33.72,25.35Z"/></g></svg>